<?xml version="1.0" encoding="utf-8"?>
<!-- Generator: Adobe Illustrator 21.0.1, SVG Export Plug-In . SVG Version: 6.00 Build 0)  -->
<svg version="1.1" id="Layer_1" xmlns="http://www.w3.org/2000/svg" xmlns:xlink="http://www.w3.org/1999/xlink" x="0px" y="0px"
	 viewBox="0 0 351.1 117" style="enable-background:new 0 0 351.1 117;" xml:space="preserve">
<style type="text/css">
	.st0{fill:#CED9E5;}
	.st1{fill:#EE5340;}
	.st2{fill:#007477;}
</style>
<title>Asset 2</title>
<g>
	<g>
		<path id="path12" class="st0" d="M13.5,61h90v-4.5h-90V61z"/>
		<g id="g22">
			<path id="path24" class="st1" d="M40.5,58.8c0,5-4,9-9,9s-9-4-9-9s4-9,9-9l0,0C36.5,49.8,40.5,53.8,40.5,58.8"/>
		</g>
		<path id="path26" class="st0" d="M13.5,97h90v-4.5h-90V97z"/>
		<g id="g28">
			<path id="path30" class="st1" d="M95.1,94.8c0,5-4,9-9,9s-9-4-9-9s4-9,9-9C91,85.8,95,89.8,95.1,94.8"/>
		</g>
		<path id="path32" class="st0" d="M13.5,79h90v-4.5h-90V79z"/>
		<g id="g34">
			<path id="path36" class="st1" d="M67.6,76.8c0,5-4,9-9,9s-9-4-9-9s4-9,9-9C63.6,67.8,67.5,71.8,67.6,76.8"/>
		</g>
		<path id="path38" class="st0" d="M13.5,25h90v-4.5h-90V25z"/>
		<path id="path44" class="st0" d="M13.5,43h90v-4.5h-90V43z"/>
		<g id="g46">
			<path id="path48" class="st1" d="M67.6,40.8c0,5-4,9-9,9s-9-4-9-9s4-9,9-9C63.6,31.8,67.5,35.8,67.6,40.8"/>
		</g>
		<path class="st2" d="M6.8,0.1C3,0,0,3,0,6.8c0,0,0,0,0,0.1v103.5c0,3.7,3,6.8,6.8,6.8s6.8-3,6.8-6.8V6.8
			C13.5,3.1,10.5,0.1,6.8,0.1z"/>
		<path class="st2" d="M110.3,0.1c-3.7,0-6.7,3-6.8,6.7c0,0,0,0,0,0.1v103.5c0,3.7,3,6.8,6.8,6.8s6.8-3,6.8-6.8V6.8
			C117,3.1,114,0.1,110.3,0.1z"/>
		<g id="g40">
			<path id="path42" class="st1" d="M95.1,22.8c0,5-4,9-9,9s-9-4-9-9s4-9,9-9S95.1,17.8,95.1,22.8"/>
		</g>
	</g>
	<path class="st2" d="M157.4,75.7V41.5c0-0.8-0.2-1.6-0.8-2.2c-0.8-1.1-2.3-1.3-3.4-0.5c-0.2,0.1-0.4,0.3-0.5,0.5
		c-0.5,0.6-0.8,1.4-0.8,2.2v14.2h-16.3V41.5c0-0.8-0.3-1.6-0.8-2.2c-0.5-0.6-1.2-1-2-1c-0.8,0-1.5,0.4-1.9,1
		c-0.5,0.6-0.8,1.4-0.8,2.2v34.2c0,0.8,0.3,1.5,0.8,2.2c0.5,0.6,1.2,1,1.9,1c0.8,0,1.5-0.4,2-1c0.5-0.6,0.8-1.4,0.8-2.2V61.6H152
		v14.1c0,0.8,0.3,1.5,0.8,2.2c0.8,1.1,2.3,1.3,3.4,0.5c0.2-0.1,0.3-0.3,0.5-0.5C157.1,77.2,157.4,76.5,157.4,75.7z"/>
	<path class="st2" d="M170.5,75.7V41.5c0-0.8-0.3-1.6-0.8-2.2c-0.5-0.6-1.2-1-2-1c-0.8,0-1.5,0.4-1.9,1c-0.5,0.6-0.8,1.4-0.8,2.2
		v34.2c0,0.8,0.3,1.5,0.8,2.2c0.5,0.6,1.2,1,1.9,1c0.8,0,1.5-0.4,2-1C170.2,77.2,170.5,76.5,170.5,75.7z"/>
	<path class="st2" d="M211.4,38.3h-1.5c-0.8,0-1.5,0.3-2.1,0.8c-0.6,0.5-1,1.2-1.3,1.9l-9.9,29.6L186.7,41c-0.3-0.7-0.7-1.3-1.3-1.8
		c-0.6-0.5-1.3-0.8-2.1-0.8h-1.5c-1,0-2,0.5-2.6,1.3c-0.7,0.8-1,1.9-1,3v33.1c0,0.8,0.3,1.5,0.8,2.2c0.5,0.6,1.2,1,1.9,1
		c0.8,0,1.5-0.4,2-1c0.5-0.6,0.8-1.4,0.8-2.2V48l9.4,28.1c0.3,0.8,0.7,1.5,1.4,2c1.3,1,3.1,1,4.4,0c0.6-0.5,1.1-1.2,1.3-1.9
		l9.5-28.1v27.6c0,0.8,0.3,1.5,0.8,2.2c0.8,1.1,2.3,1.3,3.4,0.5c0.2-0.1,0.3-0.3,0.5-0.5c0.5-0.6,0.8-1.4,0.8-2.2V42.6
		c0-1.1-0.3-2.2-1-3C213.4,38.8,212.4,38.3,211.4,38.3z"/>
	<path class="st2" d="M249.3,38.3c-0.8,0-1.5,0.4-1.9,1c-0.5,0.6-0.8,1.4-0.8,2.2v27.6L230,40.3c-0.6-1.2-1.8-1.9-3.1-2h-0.6
		c-1,0-2,0.5-2.6,1.3c-0.7,0.8-1,1.9-1,3v33.1c0,0.8,0.3,1.5,0.8,2.2c0.5,0.6,1.2,1,1.9,1c0.8,0,1.5-0.4,2-1
		c0.5-0.6,0.8-1.4,0.8-2.2V48l16.7,29c0.6,1.1,1.7,1.8,2.9,1.8h0.6c1,0,2-0.5,2.6-1.3c0.7-0.8,1-1.9,1-2.9V41.5
		c0-0.8-0.2-1.6-0.8-2.2C250.8,38.7,250.1,38.3,249.3,38.3z"/>
	<path class="st2" d="M275.5,41L275.5,41c-0.8-2.2-2.2-2.7-3.3-2.7h-0.5c-1.1,0-2.5,0.5-3.3,2.7l-11.7,33.3c-0.2,0.5-0.3,1-0.3,1.6
		c0,0.7,0.2,1.3,0.6,1.8c0.5,0.7,1.4,1.1,2.2,1c0.8,0,1.8-0.3,2.4-2l2.8-8.2h14.9l2.9,8.2c0.6,1.6,1.6,2,2.4,2
		c0.9,0.1,1.7-0.3,2.2-1c0.4-0.5,0.6-1.2,0.6-1.8c0-0.5-0.1-1.1-0.3-1.6L275.5,41z M277.4,62.8h-10.8l5.4-15.5L277.4,62.8z"/>
	<path class="st2" d="M316.9,56.6L316.9,56.6c1-1.9,1.6-4.1,1.6-6.3c0.2-3.1-1-6.2-3.2-8.4c-2.3-2.3-5.7-3.4-10-3.4h-10.8
		c-0.8,0-1.5,0.4-1.9,1c-0.5,0.6-0.8,1.4-0.8,2.2v33.9c0,0.8,0.3,1.5,0.8,2.2c0.5,0.6,1.2,1,1.9,1c0.8,0,1.5-0.4,2-1
		c0.5-0.6,0.8-1.4,0.8-2.2V63.3h8.9c1.3-0.1,2.6,0.3,3.7,1.1c0.9,0.9,1.7,1.9,2.1,3.1c0.6,2.1,0.9,4.2,0.8,6.3v1.7
		c0,0.8,0.2,1.6,0.7,2.2c0.5,0.6,1.2,0.9,2,0.9c0.8,0,1.5-0.4,2-1c0.5-0.6,0.7-1.4,0.7-2.1V73c0.1-2.4-0.3-4.8-1-7.1
		c-0.9-2.8-2.2-4.6-4-5.7C314.8,59.4,316,58.1,316.9,56.6z M313,50.7c0.1,1.9-0.6,3.7-2.1,4.9l0,0c-1.7,1.2-3.8,1.8-5.9,1.7h-7.7
		V44.4h7.5c3,0,5.2,0.6,6.6,1.7C312.5,47.4,313.1,49,313,50.7z"/>
	<path class="st2" d="M350.2,77.9c0.5-0.6,0.7-1.3,0.7-2c0-0.7-0.2-1.5-0.6-2.1l-12-18.1l10.3-12.4c0.5-0.5,0.8-1.3,0.8-2
		c0-0.8-0.2-1.5-0.7-2.1c-0.5-0.6-1.2-0.9-2-0.8c-0.8,0-1.5,0.5-1.9,1.1l-14.7,17.9V41.5c0-0.8-0.3-1.6-0.8-2.2c-0.5-0.6-1.2-1-2-1
		c-0.8,0-1.5,0.4-1.9,1c-0.5,0.6-0.8,1.4-0.8,2.2v34.2c0,0.8,0.3,1.5,0.8,2.2c0.5,0.6,1.2,1,1.9,1c0.8,0,1.5-0.4,2-1
		c0.5-0.6,0.8-1.4,0.8-2.2V65.6l4.6-5.5l11.5,17.6c0.5,0.7,1.3,1.2,2.1,1.2C349,78.8,349.7,78.5,350.2,77.9z"/>
</g>
</svg>
