<svg xmlns="http://www.w3.org/2000/svg" viewBox="0 0 90 90"><defs><style>.cls-1{fill:#ced9e5;}.cls-2{fill:#ee5340;}.cls-3{fill:#007477;}</style></defs><title>Asset 1xxxhdpi</title><g id="Layer_2" data-name="Layer 2"><g id="Isolation_Mode" data-name="Isolation Mode"><path id="path12" class="cls-1" d="M10.38,46.88H79.62V43.42H10.38Z"/><g id="g22"><path id="path24" class="cls-2" d="M31.16,45.15a6.92,6.92,0,1,1-6.92-6.92,7,7,0,0,1,6.92,6.92"/></g><path id="path26" class="cls-1" d="M10.38,74.57H79.62V71.11H10.38Z"/><g id="g28"><path id="path30" class="cls-2" d="M73.12,72.84a6.92,6.92,0,1,1-6.92-6.92,7,7,0,0,1,6.92,6.92"/></g><path id="path32" class="cls-1" d="M10.38,60.72H79.62V57.26H10.38Z"/><g id="g34"><path id="path36" class="cls-2" d="M52,59a6.92,6.92,0,1,1-6.92-6.92A7,7,0,0,1,52,59"/></g><path id="path38" class="cls-1" d="M10.38,19.18H79.62V15.72H10.38Z"/><g id="g40"><path id="path42" class="cls-2" d="M73.12,17.45a6.92,6.92,0,1,1-6.92-6.92,6.89,6.89,0,0,1,6.92,6.92"/></g><path id="path44" class="cls-1" d="M10.38,33H79.62V29.57H10.38Z"/><g id="g46"><path id="path48" class="cls-2" d="M52,31.3a6.92,6.92,0,1,1-6.92-6.92A7,7,0,0,1,52,31.3"/></g><path class="cls-3" d="M5.19,0A5.17,5.17,0,0,0,0,5.19V84.81a5.19,5.19,0,0,0,10.38,0V5.19A5.26,5.26,0,0,0,5.19,0Z"/><path class="cls-3" d="M84.81,0a5.17,5.17,0,0,0-5.19,5.19V84.81a5.19,5.19,0,0,0,10.38,0V5.19A5.26,5.26,0,0,0,84.81,0Z"/></g></g></svg>